<svg width="60" height="61" viewBox="0 0 60 61" fill="none" xmlns="http://www.w3.org/2000/svg">
<g id="Bold / Essentional, UI / Add Circle">
<path id="Vector" fill-rule="evenodd" clip-rule="evenodd" d="M30.002 55.2001C43.809 55.2001 55.002 44.0071 55.002 30.2001C55.002 16.393 43.809 5.20013 30.002 5.20013C16.1948 5.20013 5.00195 16.393 5.00195 30.2001C5.00195 44.0071 16.1948 55.2001 30.002 55.2001ZM31.877 22.7001C31.877 21.6646 31.0375 20.8251 30.002 20.8251C28.9665 20.8251 28.127 21.6646 28.127 22.7001V28.3251H22.502C21.4664 28.3251 20.627 29.1646 20.627 30.2001C20.627 31.2356 21.4664 32.0751 22.502 32.0751H28.127V37.7001C28.127 38.7356 28.9665 39.5751 30.002 39.5751C31.0375 39.5751 31.877 38.7356 31.877 37.7001V32.0751H37.502C38.5375 32.0751 39.377 31.2356 39.377 30.2001C39.377 29.1646 38.5375 28.3251 37.502 28.3251H31.877V22.7001Z" fill="black"/>
</g>
</svg>
