<svg width="20" height="20" viewBox="0 0 20 20" fill="none" xmlns="http://www.w3.org/2000/svg">
<g id="Bold / Time / Calendar">
<path id="Vector" d="M6.1987 2.6542C6.1987 2.32283 5.93007 2.0542 5.5987 2.0542C5.26733 2.0542 4.9987 2.32283 4.9987 2.6542V3.91761C3.84724 4.00981 3.09132 4.23609 2.53596 4.79146C1.9806 5.34681 1.75431 6.10274 1.66211 7.2542H17.5353C17.4431 6.10274 17.2168 5.34681 16.6614 4.79146C16.1061 4.23609 15.3501 4.00981 14.1987 3.91761V2.6542C14.1987 2.32283 13.9301 2.0542 13.5987 2.0542C13.2673 2.0542 12.9987 2.32283 12.9987 2.6542V3.86452C12.4665 3.8542 11.8699 3.8542 11.1987 3.8542H7.9987C7.32748 3.8542 6.73092 3.8542 6.1987 3.86452V2.6542Z" fill="black"/>
<path id="Vector_2" fill-rule="evenodd" clip-rule="evenodd" d="M1.59961 10.2543C1.59961 9.58315 1.59961 8.98659 1.60993 8.45435H17.5893C17.5996 8.98659 17.5996 9.58315 17.5996 10.2543V11.8543C17.5996 14.8713 17.5996 16.3799 16.6623 17.3171C15.7251 18.2543 14.2166 18.2543 11.1996 18.2543H7.99961C4.98262 18.2543 3.47413 18.2543 2.53687 17.3171C1.59961 16.3799 1.59961 14.8713 1.59961 11.8543V10.2543ZM13.5996 11.8543C14.0414 11.8543 14.3996 11.4962 14.3996 11.0543C14.3996 10.6125 14.0414 10.2543 13.5996 10.2543C13.1578 10.2543 12.7996 10.6125 12.7996 11.0543C12.7996 11.4962 13.1578 11.8543 13.5996 11.8543ZM13.5996 15.0543C14.0414 15.0543 14.3996 14.6962 14.3996 14.2543C14.3996 13.8125 14.0414 13.4543 13.5996 13.4543C13.1578 13.4543 12.7996 13.8125 12.7996 14.2543C12.7996 14.6962 13.1578 15.0543 13.5996 15.0543ZM10.3996 11.0543C10.3996 11.4962 10.0414 11.8543 9.59961 11.8543C9.15777 11.8543 8.79961 11.4962 8.79961 11.0543C8.79961 10.6125 9.15777 10.2543 9.59961 10.2543C10.0414 10.2543 10.3996 10.6125 10.3996 11.0543ZM10.3996 14.2543C10.3996 14.6962 10.0414 15.0543 9.59961 15.0543C9.15777 15.0543 8.79961 14.6962 8.79961 14.2543C8.79961 13.8125 9.15777 13.4543 9.59961 13.4543C10.0414 13.4543 10.3996 13.8125 10.3996 14.2543ZM5.59961 11.8543C6.04143 11.8543 6.39961 11.4962 6.39961 11.0543C6.39961 10.6125 6.04143 10.2543 5.59961 10.2543C5.15779 10.2543 4.79961 10.6125 4.79961 11.0543C4.79961 11.4962 5.15779 11.8543 5.59961 11.8543ZM5.59961 15.0543C6.04143 15.0543 6.39961 14.6962 6.39961 14.2543C6.39961 13.8125 6.04143 13.4543 5.59961 13.4543C5.15779 13.4543 4.79961 13.8125 4.79961 14.2543C4.79961 14.6962 5.15779 15.0543 5.59961 15.0543Z" fill="black"/>
</g>
</svg>
