<svg width="33" height="33" viewBox="0 0 33 33" fill="none" xmlns="http://www.w3.org/2000/svg">
<path fill-rule="evenodd" clip-rule="evenodd" d="M16.5983 3.2666C10.7073 3.2666 5.93164 8.60337 5.93164 14.5999C5.93164 20.5495 9.33607 27.0165 14.6478 29.4991C15.8859 30.0779 17.3107 30.0779 18.5488 29.4991C23.8606 27.0165 27.265 20.5495 27.265 14.5999C27.265 8.60337 22.4894 3.2666 16.5983 3.2666ZM16.5983 16.5999C18.0711 16.5999 19.265 15.4061 19.265 13.9333C19.265 12.4605 18.0711 11.2666 16.5983 11.2666C15.1255 11.2666 13.9316 12.4605 13.9316 13.9333C13.9316 15.4061 15.1255 16.5999 16.5983 16.5999Z" fill="black"/>
</svg>
