<svg width="24" height="25" viewBox="0 0 24 25" fill="none" xmlns="http://www.w3.org/2000/svg">
<path d="M12 22.5C17.5228 22.5 22 18.0228 22 12.5C22 6.97715 17.5228 2.5 12 2.5C6.47715 2.5 2 6.97715 2 12.5C2 18.0228 6.47715 22.5 12 22.5Z" fill="#2BF824" fill-opacity="0.1"/>
<path d="M8 12.5H16H8Z" fill="#2BF824" fill-opacity="0.1"/>
<path d="M12 8.5V16.5V8.5Z" fill="#2BF824" fill-opacity="0.1"/>
<path d="M8 12.5H16M12 8.5V16.5M22 12.5C22 18.0228 17.5228 22.5 12 22.5C6.47715 22.5 2 18.0228 2 12.5C2 6.97715 6.47715 2.5 12 2.5C17.5228 2.5 22 6.97715 22 12.5Z" stroke="#2BF824" stroke-width="2" stroke-linecap="round" stroke-linejoin="round"/>
</svg>
