<svg width="130" height="42" viewBox="0 0 130 42" fill="none" xmlns="http://www.w3.org/2000/svg">
<path d="M8.13842 32.4098V9.86953H0V4.48381H22.5003V9.86953H14.1226V32.4098H8.13842Z" fill="black"/>
<path d="M60.1271 32.4098V9.86953H51.9887V4.48381H74.4891V9.86953H66.1113V32.4098H60.1271Z" fill="black"/>
<path d="M77.0547 32.4098V11.3057H82.5203L82.7197 18.0877L81.7623 16.6914C82.0814 15.601 82.6001 14.6169 83.3181 13.7393C84.0362 12.835 84.874 12.1302 85.8315 11.6249C86.8155 11.1195 87.8395 10.8669 88.9033 10.8669C89.3555 10.8669 89.7943 10.9068 90.2198 10.9866C90.6454 11.0664 91.0044 11.1594 91.297 11.2658L89.781 17.4893C89.4619 17.3297 89.0762 17.1968 88.6241 17.0904C88.1719 16.9574 87.7065 16.8909 87.2278 16.8909C86.5895 16.8909 85.9911 17.0106 85.4325 17.25C84.9006 17.4627 84.4352 17.7819 84.0362 18.2074C83.6373 18.6064 83.3181 19.0851 83.0788 19.6436C82.866 20.2021 82.7596 20.8138 82.7596 21.4787V32.4098H77.0547Z" fill="black"/>
<path d="M95.8241 32.4098V11.3057H101.489V32.4098H95.8241ZM98.6166 6.95725C97.5262 6.95725 96.6751 6.69129 96.0634 6.15936C95.4517 5.62744 95.1458 4.86945 95.1458 3.88539C95.1458 2.98113 95.4517 2.24973 96.0634 1.69121C96.7017 1.1061 97.5528 0.813538 98.6166 0.813538C99.7071 0.813538 100.558 1.0928 101.17 1.65132C101.782 2.18324 102.087 2.92793 102.087 3.88539C102.087 4.81626 101.768 5.56095 101.13 6.11947C100.518 6.67799 99.6805 6.95725 98.6166 6.95725Z" fill="black"/>
<path d="M108.337 41.1865V11.3057H113.803L113.963 16.0531L112.925 15.6941C113.111 14.843 113.564 14.0584 114.282 13.3403C115.026 12.6222 115.944 12.0371 117.034 11.585C118.125 11.1328 119.268 10.9068 120.465 10.9068C122.3 10.9068 123.923 11.3855 125.332 12.343C126.769 13.2738 127.899 14.5637 128.723 16.2127C129.574 17.8351 130 19.7101 130 21.8378C130 23.9389 129.588 25.8139 128.763 27.4629C127.939 29.1118 126.808 30.4151 125.372 31.3725C123.936 32.3034 122.3 32.7688 120.465 32.7688C119.242 32.7688 118.072 32.5427 116.955 32.0906C115.864 31.6119 114.933 30.9869 114.162 30.2156C113.391 29.4443 112.912 28.6198 112.726 27.7421L114.042 27.1836V41.1865H108.337ZM119.189 27.9017C120.226 27.9017 121.143 27.6491 121.941 27.1437C122.739 26.6384 123.364 25.9336 123.816 25.0293C124.269 24.0985 124.495 23.0346 124.495 21.8378C124.495 20.641 124.269 19.5904 123.816 18.6861C123.364 17.7819 122.739 17.0771 121.941 16.5718C121.17 16.0664 120.253 15.8138 119.189 15.8138C118.125 15.8138 117.194 16.0664 116.396 16.5718C115.598 17.0505 114.973 17.7553 114.521 18.6861C114.069 19.5904 113.843 20.641 113.843 21.8378C113.843 23.0346 114.069 24.0985 114.521 25.0293C114.973 25.9336 115.598 26.6384 116.396 27.1437C117.194 27.6491 118.125 27.9017 119.189 27.9017Z" fill="black"/>
<g clip-path="url(#clip0_132_32)">
<path d="M48.3081 11.477C52.1027 18.1377 49.8394 26.6979 43.2668 30.5435C36.7035 34.3837 28.2568 32.09 24.4621 25.4293C20.6728 18.7778 22.9361 10.2177 29.4994 6.37747C36.0719 2.53185 44.5187 4.82552 48.3081 11.477ZM29.3612 13.7189C29.1324 13.8528 29.1219 14.1558 29.36 14.3381L34.2344 17.8809L31.3359 20.0344L29.0314 18.6245C28.8106 18.494 28.6074 18.5015 28.3694 18.6408L28.0856 18.8068C27.8659 18.9354 27.7988 19.1602 27.9256 19.3828L31.3661 25.4221C31.4929 25.6446 31.724 25.7074 31.9437 25.5789L32.2275 25.4128C32.4655 25.2736 32.5682 25.0897 32.5724 24.8399L32.5144 22.1031L35.8093 20.6453L36.3996 26.6947C36.4364 26.9949 36.7005 27.1371 36.9293 27.0032L37.6708 26.5694C37.8722 26.4516 38.0207 26.241 38.0721 25.9883L39.6477 18.7706C39.7276 18.4394 39.8018 18.3341 40.1222 18.1467L42.7219 16.6256C44.0126 15.8704 44.7126 14.6568 44.2581 13.8589C43.8036 13.0612 42.4165 13.0687 41.1258 13.8239L38.5261 15.345C38.2057 15.5325 38.0786 15.545 37.7503 15.4402L30.7999 13.2235C30.5583 13.1422 30.3041 13.1672 30.1027 13.2851L29.3612 13.7189Z" fill="#4154FF"/>
</g>
<defs>
<clipPath id="clip0_132_32">
<rect width="27.926" height="27.926" fill="white" transform="translate(22.6201 4.48401)"/>
</clipPath>
</defs>
</svg>
