<svg width="36" height="35" viewBox="0 0 36 35" fill="none" xmlns="http://www.w3.org/2000/svg">
<path d="M13.3682 7.8873C15.2154 4.5736 16.139 2.91675 17.5199 2.91675C18.9008 2.91675 19.8243 4.57359 21.6714 7.88729L22.1493 8.74458C22.6743 9.68623 22.9367 10.1571 23.346 10.4677C23.7553 10.7784 24.2648 10.8937 25.2842 11.1243L26.2123 11.3343C29.7992 12.1459 31.5928 12.5517 32.0195 13.9239C32.4462 15.296 31.2235 16.7259 28.778 19.5854L28.1454 20.3252C27.4505 21.1377 27.103 21.544 26.9467 22.0467C26.7905 22.5494 26.843 23.0915 26.948 24.1757L27.0437 25.1627C27.4133 28.978 27.5983 30.8857 26.4812 31.7337C25.3639 32.5817 23.6847 31.8085 20.3261 30.2622L19.4573 29.8621C18.5029 29.4227 18.0258 29.2029 17.5199 29.2029C17.014 29.2029 16.5368 29.4227 15.5825 29.8621L14.7136 30.2622C11.355 31.8085 9.67575 32.5817 8.55862 31.7337C7.44149 30.8857 7.62635 28.978 7.99607 25.1627L8.09171 24.1757C8.19678 23.0915 8.24931 22.5494 8.09299 22.0467C7.93668 21.544 7.58924 21.1377 6.89433 20.3252L6.26167 19.5854C3.81627 16.7259 2.59356 15.296 3.02026 13.9239C3.44697 12.5517 5.24049 12.1459 8.82752 11.3343L9.75553 11.1243C10.7748 10.8937 11.2845 10.7784 11.6937 10.4677C12.103 10.1571 12.3654 9.68624 12.8903 8.74458L13.3682 7.8873Z" fill="#F0A400"/>
</svg>
