<svg width="32" height="32" viewBox="0 0 32 32" fill="none" xmlns="http://www.w3.org/2000/svg">
<path d="M9.33333 28H22.6667M26 16L29.3333 8M21.6667 4C22.0267 4.13333 22.7333 4.70667 22.6667 5.81333C22.5867 6.92 21.4267 7.41333 21.3333 8.50667C21.2667 9.54667 21.7867 10.16 22.3067 10.6667M15 4C15.36 4.13333 16.0667 4.70667 15.9867 5.81333C15.92 6.92 14.7467 7.41333 14.68 8.50667C14.6 9.54667 15.12 10.16 15.64 10.6667M8.33333 4C8.69333 4.13333 9.4 4.70667 9.33333 5.81333C9.25333 6.92 8.09333 7.41333 8 8.50667C7.93333 9.54667 8.45333 10.16 8.98667 10.6667M16 28C19.1826 28 22.2348 26.7357 24.4853 24.4853C26.7357 22.2348 28 19.1826 28 16H4C4 19.1826 5.26428 22.2348 7.51472 24.4853C9.76516 26.7357 12.8174 28 16 28Z" stroke="black" stroke-width="2" stroke-linecap="round" stroke-linejoin="round"/>
</svg>
