<svg width="32" height="32" viewBox="0 0 32 32" fill="none" xmlns="http://www.w3.org/2000/svg">
<path d="M29.3337 14.6665V26.6665C29.3337 27.3737 29.0527 28.052 28.5526 28.5521C28.0525 29.0522 27.3742 29.3332 26.667 29.3332M29.3337 14.6665H2.66699M29.3337 14.6665V11.9998M29.3337 14.6665H24.0003M2.66699 14.6665V26.6665C2.66699 27.3737 2.94794 28.052 3.44804 28.5521C3.94814 29.0522 4.62641 29.3332 5.33366 29.3332M2.66699 14.6665V11.9998M2.66699 14.6665H8.00033M5.33366 29.3332H26.667M5.33366 29.3332H12.0003V23.9998C12.0003 22.939 12.4218 21.9216 13.1719 21.1714C13.922 20.4213 14.9395 19.9998 16.0003 19.9998C17.0612 19.9998 18.0786 20.4213 18.8288 21.1714C19.5789 21.9216 20.0003 22.939 20.0003 23.9998V29.3332H26.667M24.0003 14.6665V5.33317M24.0003 14.6665H8.00033M24.0003 5.33317H8.00033M24.0003 5.33317V2.6665M24.0003 5.33317H18.667M8.00033 5.33317V14.6665M8.00033 5.33317V2.6665M8.00033 5.33317H13.3337M13.3337 5.33317V2.6665M13.3337 5.33317H18.667M18.667 5.33317V2.6665" stroke="black" stroke-width="2.66667" stroke-linecap="round" stroke-linejoin="round"/>
</svg>
