<svg width="32" height="32" viewBox="0 0 32 32" fill="none" xmlns="http://www.w3.org/2000/svg">
<path fill-rule="evenodd" clip-rule="evenodd" d="M4.41735 19.5994C4.63871 19.0935 5.22834 18.8627 5.73432 19.0841L12.401 22.0008C12.907 22.2221 13.1377 22.8118 12.9163 23.3177C12.695 23.8237 12.1053 24.0544 11.5994 23.8331L4.93269 20.9164C4.42671 20.695 4.19598 20.1054 4.41735 19.5994ZM27.583 19.5994C27.8044 20.1054 27.5736 20.695 27.0677 20.9164L5.73432 30.2497C5.22834 30.4711 4.63871 30.2404 4.41735 29.7344C4.19598 29.2284 4.42671 28.6388 4.93269 28.4174L26.266 19.0841C26.772 18.8627 27.3616 19.0935 27.583 19.5994ZM18.4173 25.7244C18.6387 25.2185 19.2283 24.9877 19.7343 25.2091L27.0677 28.4174C27.5736 28.6388 27.8044 29.2284 27.583 29.7344C27.3616 30.2404 26.772 30.4711 26.266 30.2497L18.9327 27.0414C18.4267 26.82 18.196 26.2304 18.4173 25.7244Z" fill="black"/>
<path fill-rule="evenodd" clip-rule="evenodd" d="M15.4667 19.9998C18.3111 19.9998 24 18.3485 24 11.7431C24 7.70117 21.5349 4.76971 19.2013 3.01931C18.004 2.12128 16.4706 3.0527 16.4706 4.51845C16.4706 5.50875 16.1898 7.15469 15.4128 8.37314C14.5035 9.79909 13.0017 8.56117 12.7639 6.90149C12.6447 6.06919 11.7285 5.72502 11.0146 6.20349C9.61119 7.14419 8 8.94672 8 11.7431C8 18.3485 12.9778 19.9998 15.4667 19.9998ZM20.2873 12.3753C20.8163 12.534 21.1165 13.0915 20.9578 13.6205C20.5993 14.8157 19.1125 16.9998 16 16.9998C15.4477 16.9998 15 16.5521 15 15.9998C15 15.4476 15.4477 14.9998 16 14.9998C18.0075 14.9998 18.8674 13.6285 19.0422 13.0458C19.2009 12.5168 19.7584 12.2166 20.2873 12.3753Z" fill="black"/>
</svg>
