<svg width="28" height="23" viewBox="0 0 28 23" fill="none" xmlns="http://www.w3.org/2000/svg">
<path fill-rule="evenodd" clip-rule="evenodd" d="M15.3334 0.333496H12.6667C7.63847 0.333496 5.12431 0.333496 3.56221 1.89559C2.19892 3.25888 2.02541 5.34734 2.00333 9.19936V11.3555C1.49621 11.6474 1.09608 12.0999 0.869735 12.6463C0.666748 13.1364 0.666748 13.7576 0.666748 15.0002C0.666748 16.2427 0.666748 16.8639 0.869735 17.354C1.14039 18.0074 1.65952 18.5266 2.31292 18.7972C2.64944 18.9366 3.04783 18.9803 3.66675 18.9939V21.6668C3.66675 22.2191 4.11447 22.6668 4.66675 22.6668C5.21903 22.6668 5.66675 22.2191 5.66675 21.6668V19.0002H22.3334V21.6668C22.3334 22.2191 22.7811 22.6668 23.3334 22.6668C23.8857 22.6668 24.3334 22.2191 24.3334 21.6668V18.9939C24.9523 18.9803 25.3507 18.9366 25.6873 18.7972C26.3406 18.5266 26.8598 18.0074 27.1305 17.354C27.3334 16.8639 27.3334 16.2427 27.3334 15.0002C27.3334 13.7576 27.3334 13.1364 27.1305 12.6463C26.9041 12.0999 26.5039 11.6474 25.9969 11.3556V9.19936C25.9749 5.34734 25.8013 3.25888 24.4381 1.89559C22.8759 0.333496 20.3618 0.333496 15.3334 0.333496ZM23.6667 11.0003V8.93083C23.6669 7.7329 23.6669 6.73387 23.5602 5.94086C23.4477 5.1038 23.2001 4.34807 22.5929 3.74078C21.9855 3.13348 21.2298 2.88592 20.3927 2.77338C19.5997 2.66676 18.6007 2.66679 17.4027 2.66683H10.5975C9.39948 2.66679 8.40052 2.66676 7.60748 2.77338C6.77043 2.88592 6.01468 3.13348 5.4074 3.74078C4.80011 4.34807 4.55253 5.1038 4.44 5.94086C4.33337 6.7339 4.33341 7.73286 4.33345 8.93083V11.0003C4.43936 11.0002 4.55033 11.0002 4.66675 11.0002H23.3334C23.4498 11.0002 23.5609 11.0002 23.6667 11.0003Z" fill="white"/>
</svg>
