<svg width="40" height="40" viewBox="0 0 40 40" fill="none" xmlns="http://www.w3.org/2000/svg">
<path d="M18.7496 17.4994V12.0825H15.8329C14.2262 12.0825 13.1468 12.0852 12.3417 12.1934C11.5726 12.2968 11.2434 12.4755 11.0262 12.6927C10.809 12.91 10.6303 13.2391 10.5269 14.0082C10.4187 14.8133 10.416 15.8927 10.416 17.4994H18.7496Z" fill="black"/>
<path d="M29.5837 17.4994C29.5837 15.8927 29.581 14.8133 29.4728 14.0082C29.3695 13.2391 29.1907 12.91 28.9735 12.6927C28.7563 12.4755 28.4271 12.2968 27.6579 12.1934C26.8529 12.0852 25.7735 12.0825 24.1668 12.0825H21.25V17.4994H29.5837Z" fill="black"/>
<path fill-rule="evenodd" clip-rule="evenodd" d="M21.6671 6.66602H18.3336C12.048 6.66602 8.90519 6.66602 6.95249 8.61871C5.2483 10.3229 5.03141 12.9336 5.00381 17.7488V20.4441C4.36988 20.8089 3.8697 21.3746 3.58675 22.0577C3.33301 22.6703 3.33301 23.4469 3.33301 25.0001C3.33301 26.5533 3.33301 27.3299 3.58675 27.9426C3.92508 28.7593 4.57403 29.4083 5.39081 29.7466C5.81148 29.9208 6.30948 29.9755 7.08316 29.9925V33.3338C7.08316 34.0242 7.64284 34.5838 8.33322 34.5838C9.02359 34.5838 9.58327 34.0242 9.58327 33.3338V30.0003H30.4175V33.3338C30.4175 34.0242 30.9772 34.5838 31.6675 34.5838C32.3579 34.5838 32.9176 34.0242 32.9176 33.3338V29.9925C33.6913 29.9755 34.1893 29.9208 34.61 29.7466C35.4267 29.4083 36.0757 28.7593 36.414 27.9426C36.6677 27.3299 36.6677 26.5533 36.6677 25.0001C36.6677 23.4469 36.6677 22.6703 36.414 22.0577C36.131 21.3746 35.6309 20.8089 34.997 20.4443V17.7488C34.9695 12.9336 34.7525 10.3229 33.0484 8.61871C31.0957 6.66602 27.9529 6.66602 21.6671 6.66602ZM32.0842 20.0001V17.4131C32.0844 15.9157 32.0844 14.6668 31.951 13.6755C31.8104 12.6291 31.5008 11.6844 30.7418 10.9253C29.9826 10.1661 29.0379 9.85668 27.9915 9.71599C27.0002 9.58272 25.7514 9.58275 24.2539 9.5828H15.7469C14.2494 9.58275 13.0006 9.58272 12.0093 9.71599C10.9629 9.85668 10.0182 10.1661 9.25907 10.9253C8.49992 11.6844 8.19044 12.6291 8.04977 13.6755C7.91648 14.6668 7.91653 15.9156 7.91658 17.4131V20.0001C8.04897 19.9999 8.18769 19.9999 8.33322 19.9999H31.6675C31.813 19.9999 31.9519 19.9999 32.0842 20.0001Z" fill="black"/>
</svg>
