<svg width="40" height="40" viewBox="0 0 40 40" fill="none" xmlns="http://www.w3.org/2000/svg">
<path fill-rule="evenodd" clip-rule="evenodd" d="M5.52016 24.4993C5.79688 23.8668 6.53395 23.5784 7.16645 23.8551L15.5001 27.5011C16.1326 27.7778 16.4211 28.5149 16.1443 29.1474C15.8676 29.7799 15.1305 30.0683 14.498 29.7916L6.16436 26.1456C5.53186 25.8689 5.24344 25.1318 5.52016 24.4993ZM34.4784 24.4993C34.7551 25.1318 34.4667 25.8689 33.8342 26.1456L7.16645 37.8128C6.53395 38.0895 5.79688 37.8011 5.52016 37.1686C5.24344 36.5361 5.53186 35.799 6.16436 35.5223L32.8321 23.8551C33.4646 23.5784 34.2017 23.8668 34.4784 24.4993ZM23.0209 32.1559C23.2976 31.5234 24.0347 31.235 24.6672 31.5117L33.8342 35.5223C34.4667 35.799 34.7551 36.5361 34.4784 37.1686C34.2017 37.8011 33.4646 38.0895 32.8321 37.8128L23.6651 33.8022C23.0326 33.5255 22.7442 32.7884 23.0209 32.1559Z" fill="black"/>
<path fill-rule="evenodd" clip-rule="evenodd" d="M19.3327 25.0001C22.8884 25.0001 29.9999 22.9358 29.9999 14.6787C29.9999 9.62611 26.9183 5.96163 24.0012 3.77354C22.5046 2.65096 20.5877 3.81528 20.5877 5.64755C20.5877 6.88548 20.2368 8.94299 19.2655 10.4661C18.1288 12.2486 16.2514 10.7012 15.9542 8.62647C15.8052 7.58605 14.6599 7.15582 13.7675 7.75394C12.0131 8.92986 9.99902 11.1831 9.99902 14.6787C9.99902 22.9358 16.2215 25.0001 19.3327 25.0001ZM25.3588 15.4691C26.0201 15.6675 26.3954 16.3643 26.197 17.0256C25.7488 18.5196 23.8902 21.2499 19.9994 21.2499C19.3091 21.2499 18.7494 20.6903 18.7494 19.9999C18.7494 19.3095 19.3091 18.7498 19.9994 18.7498C22.5089 18.7498 23.5838 17.0355 23.8023 16.3072C24.0007 15.6459 24.6976 15.2707 25.3588 15.4691Z" fill="black"/>
</svg>
