<svg width="40" height="40" viewBox="0 0 40 40" fill="none" xmlns="http://www.w3.org/2000/svg">
<path d="M36.6677 18.3331V33.3338C36.6677 34.2179 36.3165 35.0657 35.6914 35.6909C35.0662 36.316 34.2183 36.6672 33.3343 36.6672M36.6677 18.3331H3.33301M36.6677 18.3331V14.9997M36.6677 18.3331H30.0008M3.33301 18.3331V33.3338C3.33301 34.2179 3.68421 35.0657 4.30936 35.6909C4.93451 36.316 5.78239 36.6672 6.66648 36.6672M3.33301 18.3331V14.9997M3.33301 18.3331H9.99995M6.66648 36.6672H33.3343M6.66648 36.6672H15.0002V30.0003C15.0002 28.6742 15.527 27.4023 16.4647 26.4646C17.4024 25.5269 18.6742 25.0001 20.0004 25.0001C21.3265 25.0001 22.5983 25.5269 23.536 26.4646C24.4738 27.4023 25.0006 28.6742 25.0006 30.0003V36.6672H33.3343M30.0008 18.3331V6.66599M30.0008 18.3331H9.99995M30.0008 6.66599H9.99995M30.0008 6.66599V3.33252M30.0008 6.66599H23.3338M9.99995 6.66599V18.3331M9.99995 6.66599V3.33252M9.99995 6.66599H16.6669M16.6669 6.66599V3.33252M16.6669 6.66599H23.3338M23.3338 6.66599V3.33252" stroke="black" stroke-width="3.33347" stroke-linecap="round" stroke-linejoin="round"/>
</svg>
