<svg width="40" height="40" viewBox="0 0 40 40" fill="none" xmlns="http://www.w3.org/2000/svg">
<path d="M35.895 15.2264L34.4864 20.7219C33.7705 23.515 32.3087 25.4803 30.5917 26.8623C30.9572 24.9563 30.949 22.8332 30.3527 20.5066L28.9127 14.8885C28.8273 14.5554 28.7439 14.2297 28.6617 13.916C28.9472 13.7865 29.296 13.7454 29.6598 13.8429C30.2909 14.012 30.6747 14.5198 30.7226 15.0132C30.7893 15.7003 31.4004 16.2033 32.0875 16.1366C32.7746 16.0699 33.2776 15.4588 33.2109 14.7717C33.0584 13.2008 31.9054 11.8564 30.3068 11.4281C29.5024 11.2126 28.6797 11.2543 27.9439 11.5126L27.9163 11.4383C27.5422 10.4443 26.9952 9.39038 25.9636 8.61552C25.3995 8.1918 24.762 7.87367 24.0805 7.68044C22.8161 7.32199 21.6428 7.55236 20.6411 7.8857C19.7105 8.19534 18.6255 8.70355 17.4335 9.26191L17.314 9.31787C15.3397 10.2424 14.5497 10.607 13.7405 10.8639C13.4949 10.9418 13.2473 11.0127 12.9981 11.0763L13.5425 8.96511C14.2768 6.10031 14.644 4.6679 15.6027 3.9478C15.9241 3.70639 16.2844 3.52728 16.6663 3.41898C17.8057 3.09596 19.1007 3.70239 21.6906 4.91525C23.6085 5.81337 24.5674 6.26243 25.568 6.58004C25.9159 6.69047 26.2672 6.78887 26.6213 6.87508C27.6398 7.12303 28.685 7.23537 30.7755 7.46005C33.5985 7.76346 35.0101 7.91516 35.8423 8.79046C36.1213 9.0839 36.3476 9.42733 36.5105 9.8044C36.9964 10.9292 36.6293 12.3616 35.895 15.2264Z" fill="black"/>
<path fill-rule="evenodd" clip-rule="evenodd" d="M27.931 21.1273L26.5224 15.6318C25.7881 12.767 25.421 11.3346 24.4622 10.6145C24.1408 10.3731 23.7806 10.1939 23.3986 10.0856C22.2592 9.76262 20.9642 10.3691 18.3743 11.5819C16.4564 12.48 15.4975 12.9291 14.4969 13.2467C14.149 13.3571 13.7977 13.4555 13.4436 13.5417C12.4252 13.7897 11.3799 13.902 9.28949 14.1267C6.46643 14.4301 5.05486 14.5818 4.22263 15.4571C3.94363 15.7506 3.7173 16.094 3.55441 16.4711C3.06854 17.5958 3.43568 19.0282 4.16996 21.893L5.57854 27.3886C7.23431 33.8486 12.7394 35.8806 16.4389 36.5093C17.5675 36.7011 18.1318 36.7969 19.8456 36.3169C21.5594 35.8368 22.0022 35.4588 22.8879 34.7028C25.791 32.2247 29.5868 27.5873 27.931 21.1273ZM10.0095 22.2796C10.0574 21.7863 10.4411 21.2785 11.0723 21.1094C11.7035 20.9402 12.2897 21.1881 12.5779 21.5914C12.9792 22.1532 13.7599 22.2832 14.3217 21.8818C14.8834 21.4805 15.0134 20.6998 14.6121 20.1381C13.6946 18.854 12.0238 18.2662 10.4253 18.6945C8.82673 19.1229 7.67369 20.4673 7.5212 22.0381C7.45449 22.7252 7.95745 23.3363 8.64457 23.403C9.3317 23.4697 9.9428 22.9668 10.0095 22.2796ZM19.6693 19.6909C19.7172 19.1976 20.101 18.6898 20.7322 18.5206C21.3633 18.3515 21.9496 18.5994 22.2377 19.0027C22.6391 19.5645 23.4198 19.6945 23.9815 19.2931C24.5432 18.8918 24.6732 18.1111 24.2719 17.5494C23.3544 16.2653 21.6837 15.6775 20.0851 16.1058C18.4866 16.5342 17.3335 17.8786 17.181 19.4494C17.1143 20.1365 17.6173 20.7476 18.3044 20.8143C18.9915 20.881 19.6026 20.3781 19.6693 19.6909ZM22.746 26.0475C23.3003 26.459 23.4162 27.2419 23.0047 27.7963C22.5971 28.3455 21.8248 28.4643 21.2714 28.0663L21.2552 28.0558C21.2313 28.0408 21.1845 28.0126 21.1155 27.9771C20.9774 27.906 20.7524 27.8065 20.4468 27.7234C19.8442 27.5597 18.8977 27.4514 17.6373 27.7891C16.377 28.1268 15.6114 28.6939 15.1714 29.137C14.9482 29.3617 14.8032 29.5604 14.7191 29.691C14.6771 29.7562 14.6506 29.8041 14.6375 29.829L14.6287 29.8462C14.3485 30.4675 13.6202 30.7508 12.9926 30.479C12.3591 30.2046 12.068 29.4687 12.3423 28.8352L13.4894 29.3319C12.3423 28.8352 12.3435 28.8325 12.3435 28.8325L12.3447 28.8297L12.3474 28.8235L12.354 28.8089L12.3716 28.7713C12.3853 28.7425 12.4032 28.7064 12.4255 28.664C12.4702 28.5791 12.5331 28.4682 12.6169 28.338C12.7844 28.0777 13.0369 27.7384 13.3975 27.3754C14.1249 26.6429 15.2716 25.8349 16.9903 25.3743C18.709 24.9138 20.1061 25.0403 21.1022 25.3109C21.596 25.445 21.9843 25.6126 22.2596 25.7542C22.3973 25.8251 22.5071 25.8897 22.5883 25.9409C22.6289 25.9665 22.6624 25.9887 22.6887 26.0068L22.7227 26.0306L22.7357 26.04L22.7412 26.044L22.7437 26.0458L22.746 26.0475Z" fill="black"/>
</svg>
