<svg width="40" height="40" viewBox="0 0 40 40" fill="none" xmlns="http://www.w3.org/2000/svg">
<path d="M11.666 35.0003H28.3333M32.5002 19.9996L36.667 9.99923M27.0833 4.99902C27.5333 5.1657 28.4167 5.88239 28.3333 7.26578C28.2333 8.64918 26.7833 9.26587 26.6666 10.6326C26.5833 11.9326 27.2333 12.6993 27.8833 13.3327M18.7496 4.99902C19.1996 5.1657 20.083 5.88239 19.983 7.26578C19.8996 8.64918 18.4329 9.26587 18.3496 10.6326C18.2496 11.9326 18.8996 12.6993 19.5496 13.3327M10.4159 4.99902C10.8659 5.1657 11.7493 5.88239 11.666 7.26578C11.566 8.64918 10.1159 9.26587 9.99923 10.6326C9.9159 11.9326 10.5659 12.6993 11.2326 13.3327M19.9996 35.0003C23.9781 35.0003 27.7935 33.4199 30.6067 30.6067C33.4199 27.7935 35.0003 23.9781 35.0003 19.9996H4.99902C4.99902 23.9781 6.57944 27.7935 9.3926 30.6067C12.2058 33.4199 16.0212 35.0003 19.9996 35.0003Z" stroke="black" stroke-width="2.5001" stroke-linecap="round" stroke-linejoin="round"/>
</svg>
