<svg width="32" height="33" viewBox="0 0 32 33" fill="none" xmlns="http://www.w3.org/2000/svg">
<path d="M12.2045 7.71125C13.8934 4.68159 14.7378 3.16675 16.0003 3.16675C17.2629 3.16675 18.1073 4.68157 19.7961 7.71124L20.233 8.49505C20.713 9.35599 20.9529 9.78647 21.3271 10.0705C21.7013 10.3545 22.1671 10.4599 23.0991 10.6708L23.9477 10.8628C27.2271 11.6048 28.867 11.9758 29.2571 13.2304C29.6473 14.4849 28.5294 15.7922 26.2935 18.4066L25.7151 19.083C25.0798 19.8259 24.7621 20.1974 24.6191 20.657C24.4763 21.1166 24.5243 21.6122 24.6203 22.6035L24.7078 23.5059C25.0458 26.9942 25.2149 28.7383 24.1935 29.5137C23.1721 30.289 21.6367 29.5821 18.5661 28.1683L17.7717 27.8025C16.8991 27.4007 16.4629 27.1998 16.0003 27.1998C15.5378 27.1998 15.1015 27.4007 14.229 27.8025L13.4346 28.1683C10.3639 29.5821 8.82857 30.289 7.8072 29.5137C6.78582 28.7383 6.95483 26.9942 7.29286 23.5059L7.3803 22.6035C7.47637 21.6122 7.52439 21.1166 7.38147 20.657C7.23857 20.1974 6.9209 19.8259 6.28555 19.083L5.70713 18.4066C3.47133 15.7922 2.35342 14.4849 2.74355 13.2304C3.13369 11.9758 4.77347 11.6048 8.05305 10.8628L8.90152 10.6708C9.83346 10.4599 10.2994 10.3545 10.6736 10.0705C11.0477 9.78647 11.2877 9.356 11.7676 8.49505L12.2045 7.71125Z" fill="#FFD900"/>
</svg>
