<svg width="33" height="33" viewBox="0 0 33 33" fill="none" xmlns="http://www.w3.org/2000/svg">
<path fill-rule="evenodd" clip-rule="evenodd" d="M13.636 28.6H19.5619C23.7234 28.6 25.804 28.6 27.2987 27.6194C27.9456 27.1949 28.5012 26.6494 28.9336 26.0142C29.9323 24.5468 29.9323 22.5038 29.9323 18.4181C29.9323 14.3325 29.9323 12.2896 28.9336 10.8221C28.5012 10.1868 27.9456 9.64136 27.2987 9.21688C26.3382 8.58682 25.1359 8.36162 23.295 8.28112C22.4164 8.28112 21.6602 7.62755 21.4879 6.78179C21.2294 5.51316 20.0948 4.59998 18.7772 4.59998H14.4207C13.103 4.59998 11.9685 5.51316 11.7101 6.78179C11.5378 7.62755 10.7814 8.28112 9.90296 8.28112C8.06207 8.36162 6.85969 8.58682 5.89928 9.21688C5.25223 9.64136 4.69667 10.1868 4.26432 10.8221C3.26563 12.2896 3.26562 14.3325 3.26562 18.4181C3.26562 22.5038 3.26563 24.5468 4.26432 26.0142C4.69667 26.6494 5.25223 27.1949 5.89928 27.6194C7.39395 28.6 9.47462 28.6 13.636 28.6ZM16.599 12.9636C13.5307 12.9636 11.0434 15.4057 11.0434 18.4181C11.0434 21.4306 13.5307 23.8726 16.599 23.8726C19.6672 23.8726 22.1546 21.4306 22.1546 18.4181C22.1546 15.4057 19.6672 12.9636 16.599 12.9636ZM16.599 15.1454C14.758 15.1454 13.2656 16.6106 13.2656 18.4181C13.2656 20.2256 14.758 21.6909 16.599 21.6909C18.4399 21.6909 19.9323 20.2256 19.9323 18.4181C19.9323 16.6106 18.4399 15.1454 16.599 15.1454ZM22.8952 14.0545C22.8952 13.452 23.3927 12.9636 24.0064 12.9636H25.4879C26.1015 12.9636 26.599 13.452 26.599 14.0545C26.599 14.657 26.1015 15.1454 25.4879 15.1454H24.0064C23.3927 15.1454 22.8952 14.657 22.8952 14.0545Z" fill="black"/>
</svg>
