<svg width="33" height="32" viewBox="0 0 33 32" fill="none" xmlns="http://www.w3.org/2000/svg">
<path d="M13.5977 16C13.5977 14.3432 14.9409 13 16.5977 13C18.2545 13 19.5977 14.3432 19.5977 16C19.5977 17.6568 18.2545 19 16.5977 19C14.9409 19 13.5977 17.6568 13.5977 16Z" fill="black"/>
<path fill-rule="evenodd" clip-rule="evenodd" d="M3.26562 16C3.26562 18.1859 3.83224 18.922 4.96548 20.3943C7.22824 23.3339 11.0231 26.6667 16.599 26.6667C22.1748 26.6667 25.9696 23.3339 28.2324 20.3943C29.3656 18.922 29.9323 18.1859 29.9323 16C29.9323 13.8142 29.3656 13.0781 28.2324 11.6058C25.9696 8.66612 22.1748 5.33337 16.599 5.33337C11.0231 5.33337 7.22824 8.66612 4.96548 11.6058C3.83224 13.0781 3.26562 13.8142 3.26562 16ZM16.599 11C13.8375 11 11.599 13.2386 11.599 16C11.599 18.7615 13.8375 21 16.599 21C19.3604 21 21.599 18.7615 21.599 16C21.599 13.2386 19.3604 11 16.599 11Z" fill="black"/>
</svg>
