<svg width="32" height="32" viewBox="0 0 32 32" fill="none" xmlns="http://www.w3.org/2000/svg">
<g id="Linear / Time / History">
<path id="Vector" d="M16 10.6667V16.0001L19.3333 19.3334" stroke="black" stroke-width="2" stroke-linecap="round" stroke-linejoin="round"/>
<path id="Vector_2" d="M5.78364 9.1607L4.78365 9.16573C4.78641 9.71409 5.23025 10.1579 5.77861 10.1607L5.78364 9.1607ZM9.17268 10.1777C9.72496 10.1805 10.1749 9.73506 10.1777 9.18278C10.1805 8.6305 9.73501 8.18054 9.18273 8.17777L9.17268 10.1777ZM6.76657 5.76161C6.7638 5.20933 6.31384 4.76387 5.76156 4.76665C5.20928 4.76942 4.76383 5.21938 4.7666 5.77166L6.76657 5.76161ZM5.10211 14.3799C5.17711 13.8327 4.79433 13.3284 4.24716 13.2534C3.7 13.1784 3.19563 13.5611 3.12063 14.1083L5.10211 14.3799ZM25.1496 6.85037C20.056 1.75678 11.8249 1.70519 6.76504 6.76509L8.17925 8.1793C12.4447 3.91382 19.4094 3.93861 23.7354 8.26458L25.1496 6.85037ZM6.85032 25.1496C11.9439 30.2432 20.175 30.2948 25.2349 25.2349L23.8206 23.8207C19.5552 28.0861 12.5905 28.0615 8.26453 23.7355L6.85032 25.1496ZM25.2349 25.2349C30.2948 20.1751 30.2432 11.944 25.1496 6.85037L23.7354 8.26458C28.0614 12.5906 28.0861 19.5552 23.8206 23.8207L25.2349 25.2349ZM6.76504 6.76509L5.07653 8.45359L6.49075 9.86781L8.17925 8.1793L6.76504 6.76509ZM5.77861 10.1607L9.17268 10.1777L9.18273 8.17777L5.78867 8.16071L5.77861 10.1607ZM6.78363 9.15567L6.76657 5.76161L4.7666 5.77166L4.78365 9.16573L6.78363 9.15567ZM3.12063 14.1083C2.58539 18.0132 3.83185 22.1312 6.85032 25.1496L8.26453 23.7355C5.70376 21.1747 4.6488 17.6869 5.10211 14.3799L3.12063 14.1083Z" fill="black"/>
</g>
</svg>
