<svg width="25" height="25" viewBox="0 0 25 25" fill="none" xmlns="http://www.w3.org/2000/svg">
<path id="Vector" d="M15.3756 3.3406L16.4038 2.31237C18.1073 0.608767 20.8694 0.608767 22.5731 2.31237C24.2766 4.01599 24.2766 6.77807 22.5731 8.48168L21.5448 9.5099M15.3756 3.3406C15.3756 3.3406 15.504 5.52555 17.432 7.45346C19.3599 9.38137 21.5448 9.5099 21.5448 9.5099M15.3756 3.3406L5.9226 12.7935C5.28234 13.4337 4.9622 13.7539 4.68689 14.1069C4.36212 14.5232 4.08367 14.9737 3.85648 15.4505C3.6639 15.8545 3.52073 16.2841 3.2344 17.1432L2.02106 20.7832M21.5448 9.5099L12.0919 18.9627C11.4517 19.6031 11.1315 19.9231 10.7785 20.1985C10.3622 20.5233 9.91161 20.8017 9.43492 21.0289C9.03081 21.2215 8.60131 21.3647 7.7423 21.6509L4.1023 22.8644M2.02106 20.7832L1.72447 21.6728C1.58355 22.0956 1.69357 22.5617 2.00865 22.8767C2.32374 23.1918 2.78979 23.3019 3.21251 23.1609L4.1023 22.8644M2.02106 20.7832L4.1023 22.8644" stroke="#9B9B9B" stroke-width="2.08"/>
</svg>
