<svg width="13" height="17" viewBox="0 0 13 17" fill="none" xmlns="http://www.w3.org/2000/svg">
<path fill-rule="evenodd" clip-rule="evenodd" d="M6.5 0.5C2.91015 0.5 0 3.70207 0 7.30001C0 10.8698 2.07457 14.7499 5.31139 16.2395C6.06588 16.5868 6.93412 16.5868 7.68861 16.2395C10.9254 14.7499 13 10.8698 13 7.30001C13 3.70207 10.0899 0.5 6.5 0.5ZM6.5 8.50001C7.39749 8.50001 8.125 7.78369 8.125 6.90001C8.125 6.01635 7.39749 5.30001 6.5 5.30001C5.60251 5.30001 4.875 6.01635 4.875 6.90001C4.875 7.78369 5.60251 8.50001 6.5 8.50001Z" fill="black"/>
</svg>
