<svg width="33" height="32" viewBox="0 0 33 32" fill="none" xmlns="http://www.w3.org/2000/svg">
<path d="M29.8337 14.6666V26.6666C29.8337 27.3739 29.5527 28.0521 29.0526 28.5522C28.5525 29.0523 27.8742 29.3333 27.167 29.3333M29.8337 14.6666H3.16699M29.8337 14.6666V12M29.8337 14.6666H24.5003M3.16699 14.6666V26.6666C3.16699 27.3739 3.44794 28.0521 3.94804 28.5522C4.44814 29.0523 5.12641 29.3333 5.83366 29.3333M3.16699 14.6666V12M3.16699 14.6666H8.50033M5.83366 29.3333H27.167M5.83366 29.3333H12.5003V24C12.5003 22.9391 12.9218 21.9217 13.6719 21.1715C14.422 20.4214 15.4395 20 16.5003 20C17.5612 20 18.5786 20.4214 19.3288 21.1715C20.0789 21.9217 20.5003 22.9391 20.5003 24V29.3333H27.167M24.5003 14.6666V5.33329M24.5003 14.6666H8.50033M24.5003 5.33329H8.50033M24.5003 5.33329V2.66663M24.5003 5.33329H19.167M8.50033 5.33329V14.6666M8.50033 5.33329V2.66663M8.50033 5.33329H13.8337M13.8337 5.33329V2.66663M13.8337 5.33329H19.167M19.167 5.33329V2.66663" stroke="black" stroke-width="2.66667" stroke-linecap="round" stroke-linejoin="round"/>
</svg>
