<svg width="36" height="36" viewBox="0 0 36 36" fill="none" xmlns="http://www.w3.org/2000/svg">
<g id="lucide/map-pinned">
<path id="Vector" d="M13.0704 21H7.50536C7.19086 21.0001 6.88435 21.0991 6.62917 21.283C6.37399 21.4668 6.18306 21.7262 6.08336 22.0245L3.07736 31.0245C3.002 31.25 2.98131 31.4901 3.01699 31.7251C3.05268 31.9602 3.14371 32.1834 3.28259 32.3763C3.42148 32.5692 3.60423 32.7264 3.81578 32.8349C4.02734 32.9433 4.26163 32.9999 4.49936 33H31.4994C31.7369 32.9998 31.971 32.9432 32.1824 32.8349C32.3938 32.7265 32.5765 32.5695 32.7153 32.3767C32.8542 32.184 32.9452 31.961 32.9811 31.7262C33.0169 31.4914 32.9964 31.2514 32.9214 31.026L29.9214 22.026C29.8218 21.7272 29.6308 21.4673 29.3753 21.2831C29.1198 21.099 28.8128 20.9999 28.4979 21H22.9299M26.9994 12C26.9994 17.4195 21.1959 23.1435 18.9099 25.1925C18.6484 25.3922 18.3284 25.5004 17.9994 25.5004C17.6703 25.5004 17.3504 25.3922 17.0889 25.1925C14.8044 23.1435 8.99936 17.4195 8.99936 12C8.99936 9.61305 9.94757 7.32387 11.6354 5.63604C13.3232 3.94821 15.6124 3 17.9994 3C20.3863 3 22.6755 3.94821 24.3633 5.63604C26.0512 7.32387 26.9994 9.61305 26.9994 12ZM20.9994 12C20.9994 13.6569 19.6562 15 17.9994 15C16.3425 15 14.9994 13.6569 14.9994 12C14.9994 10.3431 16.3425 9 17.9994 9C19.6562 9 20.9994 10.3431 20.9994 12Z" stroke="white" stroke-width="3" stroke-linecap="round" stroke-linejoin="round"/>
</g>
</svg>
