<svg width="33" height="32" viewBox="0 0 33 32" fill="none" xmlns="http://www.w3.org/2000/svg">
<g id="Bold / Settings, Fine Tuning / Settings">
<path id="Vector" fill-rule="evenodd" clip-rule="evenodd" d="M19.64 2.86949C19.1462 2.6665 18.5202 2.6665 17.2682 2.6665C16.0162 2.6665 15.3902 2.6665 14.8965 2.86949C14.2381 3.14014 13.715 3.65928 13.4423 4.31268C13.3178 4.61096 13.2691 4.95784 13.25 5.46382C13.222 6.20741 12.8378 6.89569 12.1885 7.26774C11.5391 7.63978 10.7464 7.62589 10.0835 7.27818C9.63247 7.04157 9.30541 6.91 8.98288 6.86786C8.27635 6.77554 7.5618 6.96556 6.99644 7.3961C6.57241 7.71901 6.25941 8.25704 5.63343 9.33308C5.00744 10.4091 4.69445 10.9471 4.62469 11.473C4.53167 12.1742 4.72313 12.8834 5.15696 13.4445C5.35497 13.7006 5.63325 13.9158 6.06516 14.1852C6.70011 14.5812 7.10865 15.2557 7.10861 15.9998C7.10857 16.744 6.70004 17.4184 6.06516 17.8142C5.63319 18.0837 5.35485 18.299 5.15683 18.5552C4.723 19.1162 4.53155 19.8253 4.62456 20.5265C4.69432 21.0524 5.00732 21.5905 5.63329 22.6665C6.25928 23.7425 6.57228 24.2806 6.99631 24.6034C7.56167 25.034 8.27621 25.224 8.98275 25.1317C9.30527 25.0896 9.63229 24.958 10.0833 24.7214C10.7463 24.3737 11.539 24.3598 12.1884 24.7318C12.8377 25.104 13.222 25.7922 13.25 26.536C13.2691 27.0418 13.3178 27.3888 13.4423 27.687C13.715 28.3404 14.2381 28.8596 14.8965 29.1302C15.3902 29.3332 16.0162 29.3332 17.2682 29.3332C18.5202 29.3332 19.1462 29.3332 19.64 29.1302C20.2984 28.8596 20.8214 28.3404 21.0941 27.687C21.2186 27.3888 21.2674 27.0418 21.2865 26.5358C21.3145 25.7922 21.6986 25.104 22.348 24.7318C22.9973 24.3597 23.7901 24.3737 24.453 24.7214C24.9041 24.958 25.231 25.0894 25.5536 25.1316C26.2601 25.224 26.9746 25.034 27.54 24.6034C27.9641 24.2805 28.277 23.7425 28.903 22.6664C29.529 21.5904 29.842 21.0524 29.9118 20.5265C30.0048 19.8253 29.8133 19.1161 29.3796 18.555C29.1814 18.2989 28.9032 18.0836 28.4712 17.8142C27.8364 17.4184 27.4278 16.7438 27.4278 15.9997C27.4278 15.2556 27.8364 14.5813 28.4712 14.1854C28.9033 13.916 29.1816 13.7008 29.3797 13.4445C29.8134 12.8835 30.0049 12.1743 29.912 11.4731C29.8421 10.9472 29.5292 10.4092 28.9032 9.33317C28.2772 8.25713 27.9642 7.7191 27.5401 7.3962C26.9748 6.96565 26.2602 6.77564 25.5537 6.86796C25.2312 6.91009 24.9041 7.04165 24.4532 7.27824C23.7902 7.62596 22.9974 7.63986 22.3481 7.26778C21.6988 6.89572 21.3145 6.20738 21.2864 5.46376C21.2673 4.95781 21.2186 4.61094 21.0941 4.31268C20.8214 3.65928 20.2984 3.14014 19.64 2.86949ZM17.2682 19.9998C19.4942 19.9998 21.2986 18.209 21.2986 15.9998C21.2986 13.7906 19.4942 11.9998 17.2682 11.9998C15.0422 11.9998 13.2378 13.7906 13.2378 15.9998C13.2378 18.209 15.0422 19.9998 17.2682 19.9998Z" fill="black"/>
</g>
</svg>
