<svg width="32" height="32" viewBox="0 0 32 32" fill="none" xmlns="http://www.w3.org/2000/svg">
<path d="M12.2036 7.21113C13.8924 4.18147 14.7368 2.66663 15.9994 2.66663C17.2619 2.66663 18.1063 4.18145 19.7951 7.21112L20.232 7.99493C20.712 8.85587 20.9519 9.28635 21.3262 9.57037C21.7003 9.8544 22.1662 9.95983 23.0982 10.1707L23.9467 10.3627C27.2262 11.1047 28.866 11.4757 29.2562 12.7303C29.6463 13.9848 28.5284 15.2921 26.2926 17.9065L25.7142 18.5829C25.0788 19.3258 24.7611 19.6973 24.6182 20.1569C24.4754 20.6165 24.5234 21.1121 24.6194 22.1034L24.7068 23.0058C25.0448 26.4941 25.2139 28.2382 24.1926 29.0136C23.1711 29.7889 21.6358 29.082 18.5651 27.6682L17.7707 27.3024C16.8982 26.9006 16.4619 26.6997 15.9994 26.6997C15.5368 26.6997 15.1006 26.9006 14.228 27.3024L13.4336 27.6682C10.3629 29.082 8.82759 29.7889 7.80622 29.0136C6.78485 28.2382 6.95386 26.4941 7.29188 23.0058L7.37932 22.1034C7.47539 21.1121 7.52342 20.6165 7.3805 20.1569C7.23759 19.6973 6.91993 19.3258 6.28458 18.5829L5.70615 17.9065C3.47035 15.2921 2.35244 13.9848 2.74258 12.7303C3.13271 11.4757 4.7725 11.1047 8.05207 10.3627L8.90054 10.1707C9.83249 9.95983 10.2985 9.8544 10.6726 9.57037C11.0468 9.28635 11.2867 8.85588 11.7666 7.99493L12.2036 7.21113Z" fill="black"/>
</svg>
