<svg width="33" height="33" viewBox="0 0 33 33" fill="none" xmlns="http://www.w3.org/2000/svg">
<g id="Bold / Essentional, UI / Trash Bin 2">
<path id="Vector" d="M4.26758 8.87661C4.26758 8.26297 4.72808 7.76551 5.29615 7.76551L8.84847 7.76491C9.55427 7.74559 10.1769 7.26081 10.4171 6.54359C10.4234 6.52474 10.4307 6.50147 10.4567 6.41709L10.6098 5.92095C10.7034 5.61677 10.785 5.35175 10.8992 5.11486C11.3504 4.17903 12.185 3.52918 13.1495 3.36281C13.3937 3.32069 13.6522 3.32087 13.949 3.32107H18.5864C18.8832 3.32087 19.1417 3.32069 19.3858 3.36281C20.3504 3.52918 21.185 4.17903 21.6361 5.11486C21.7504 5.35175 21.832 5.61677 21.9256 5.92095L22.0786 6.41709C22.1048 6.50147 22.112 6.52474 22.1182 6.54359C22.3585 7.26081 23.1046 7.74619 23.8104 7.76551H27.239C27.807 7.76551 28.2676 8.26297 28.2676 8.87661C28.2676 9.49026 27.807 9.98771 27.239 9.98771H5.29615C4.72808 9.98771 4.26758 9.49026 4.26758 8.87661Z" fill="#F01616"/>
<path id="Vector_2" d="M16.074 29.9874H17.1232C20.7332 29.9874 22.5382 29.9875 23.7118 28.8365C24.8854 27.6856 25.0055 25.7977 25.2456 22.0219L25.5916 16.581C25.7219 14.5324 25.7871 13.508 25.1983 12.8588C24.6095 12.2097 23.6154 12.2097 21.6268 12.2097H11.5704C9.58193 12.2097 8.5877 12.2097 7.99894 12.8588C7.41019 13.508 7.47534 14.5324 7.60563 16.581L7.95165 22.0219C8.19178 25.7977 8.31185 27.6856 9.48543 28.8365C10.659 29.9875 12.464 29.9874 16.074 29.9874Z" fill="#F01616"/>
</g>
</svg>
