<svg width="25" height="25" viewBox="0 0 25 25" fill="none" xmlns="http://www.w3.org/2000/svg">
<path d="M9.90316 5.90838C11.1698 3.63613 11.8031 2.5 12.75 2.5C13.6969 2.5 14.3302 3.63612 15.5968 5.90837L15.9245 6.49623C16.2845 7.14193 16.4644 7.46479 16.7451 7.67781C17.0257 7.89083 17.3751 7.9699 18.0741 8.12805L18.7105 8.27203C21.1701 8.82856 22.4 9.10682 22.6926 10.0477C22.9852 10.9886 22.1468 11.9691 20.4699 13.9299L20.0361 14.4372C19.5596 14.9944 19.3213 15.273 19.2141 15.6177C19.107 15.9624 19.143 16.3341 19.215 17.0776L19.2806 17.7544C19.5341 20.3706 19.6609 21.6787 18.8949 22.2602C18.1288 22.8417 16.9773 22.3115 14.6743 21.2512L14.0785 20.9768C13.4241 20.6755 13.0969 20.5248 12.75 20.5248C12.4031 20.5248 12.0759 20.6755 11.4215 20.9768L10.8257 21.2512C8.52268 22.3115 7.37118 22.8417 6.60515 22.2602C5.83912 21.6787 5.96588 20.3706 6.2194 17.7544L6.28498 17.0776C6.35703 16.3341 6.39305 15.9624 6.28586 15.6177C6.17868 15.273 5.94043 14.9944 5.46392 14.4372L5.0301 13.9299C3.35325 11.9691 2.51482 10.9886 2.80742 10.0477C3.10002 9.10682 4.32986 8.82856 6.78954 8.27203L7.42589 8.12805C8.12485 7.9699 8.47433 7.89083 8.75494 7.67781C9.03555 7.46479 9.21553 7.14194 9.57547 6.49623L9.90316 5.90838Z" fill="#787878"/>
</svg>
