<svg width="25" height="25" viewBox="0 0 25 25" fill="none" xmlns="http://www.w3.org/2000/svg">
<path d="M9.39828 5.90838C10.6649 3.63613 11.2982 2.5 12.2451 2.5C13.192 2.5 13.8253 3.63612 15.0919 5.90837L15.4196 6.49623C15.7796 7.14193 15.9595 7.46479 16.2402 7.67781C16.5208 7.89083 16.8702 7.9699 17.5692 8.12805L18.2056 8.27203C20.6652 8.82856 21.8951 9.10682 22.1877 10.0477C22.4803 10.9886 21.6419 11.9691 19.965 13.9299L19.5312 14.4372C19.0547 14.9944 18.8164 15.273 18.7092 15.6177C18.6021 15.9624 18.6381 16.3341 18.7101 17.0776L18.7757 17.7544C19.0292 20.3706 19.156 21.6787 18.39 22.2602C17.6239 22.8417 16.4724 22.3115 14.1694 21.2512L13.5736 20.9768C12.9192 20.6755 12.592 20.5248 12.2451 20.5248C11.8982 20.5248 11.571 20.6755 10.9166 20.9768L10.3208 21.2512C8.0178 22.3115 6.8663 22.8417 6.10027 22.2602C5.33424 21.6787 5.461 20.3706 5.71452 17.7544L5.7801 17.0776C5.85215 16.3341 5.88817 15.9624 5.78098 15.6177C5.6738 15.273 5.43555 14.9944 4.95904 14.4372L4.52522 13.9299C2.84837 11.9691 2.00994 10.9886 2.30254 10.0477C2.59514 9.10682 3.82498 8.82856 6.28466 8.27203L6.92101 8.12805C7.61997 7.9699 7.96945 7.89083 8.25006 7.67781C8.53067 7.46479 8.71065 7.14194 9.07059 6.49623L9.39828 5.90838Z" fill="url(#paint0_linear_1812_3133)"/>
<defs>
<linearGradient id="paint0_linear_1812_3133" x1="21.4903" y1="12.5" x2="3" y2="12.5" gradientUnits="userSpaceOnUse">
<stop offset="0.5" stop-color="#787878"/>
<stop offset="0.5" stop-color="#F0A400"/>
</linearGradient>
</defs>
</svg>
