<svg width="32" height="32" viewBox="0 0 32 32" fill="none" xmlns="http://www.w3.org/2000/svg">
<path fill-rule="evenodd" clip-rule="evenodd" d="M15.8333 3.33337C9.85025 3.33337 5 8.67015 5 14.6667C5 20.6163 8.45762 27.0833 13.8523 29.5659C15.1098 30.1447 16.5569 30.1447 17.8143 29.5659C23.2091 27.0833 26.6667 20.6163 26.6667 14.6667C26.6667 8.67015 21.8164 3.33337 15.8333 3.33337ZM15.8333 16.6667C17.3291 16.6667 18.5417 15.4729 18.5417 14.0001C18.5417 12.5273 17.3291 11.3334 15.8333 11.3334C14.3375 11.3334 13.125 12.5273 13.125 14.0001C13.125 15.4729 14.3375 16.6667 15.8333 16.6667Z" fill="black"/>
</svg>
