<svg width="30" height="30" viewBox="0 0 30 30" fill="none" xmlns="http://www.w3.org/2000/svg">
<path id="Vector" d="M10.4317 4.97055C12.2789 1.65686 13.2024 0 14.5833 0C15.9642 0 16.8878 1.65684 18.7349 4.97054L19.2128 5.82784C19.7378 6.76948 20.0002 7.24032 20.4095 7.55097C20.8187 7.86163 21.3283 7.97694 22.3477 8.20757L23.2757 8.41754C26.8626 9.22915 28.6563 9.63495 29.083 11.0071C29.5097 12.3792 28.287 13.8091 25.8415 16.6686L25.2089 17.4084C24.514 18.221 24.1665 18.6273 24.0101 19.13C23.854 19.6327 23.9065 20.1747 24.0115 21.259L24.1071 22.246C24.4768 26.0613 24.6617 27.9689 23.5446 28.817C22.4274 29.665 20.7481 28.8918 17.3896 27.3455L16.5207 26.9453C15.5664 26.5059 15.0892 26.2862 14.5833 26.2862C14.0774 26.2862 13.6003 26.5059 12.6459 26.9453L11.7771 27.3455C8.41849 28.8918 6.73922 29.665 5.6221 28.817C4.50497 27.9689 4.68983 26.0613 5.05954 22.246L5.15518 21.259C5.26025 20.1747 5.31278 19.6327 5.15647 19.13C5.00016 18.6273 4.65271 18.221 3.9578 17.4084L3.32515 16.6686C0.879742 13.8091 -0.342968 12.3792 0.0837403 11.0071C0.510449 9.63495 2.30396 9.22915 5.891 8.41754L6.81901 8.20757C7.83833 7.97694 8.34798 7.86163 8.75721 7.55097C9.16643 7.24032 9.4289 6.7695 9.95381 5.82784L10.4317 4.97055Z" fill="#C4C4C4"/>
</svg>
