<svg width="36" height="35" viewBox="0 0 36 35" fill="none" xmlns="http://www.w3.org/2000/svg">
<g id="Star">
<path id="Vector" d="M13.3672 7.8873C15.2144 4.5736 16.138 2.91675 17.5189 2.91675C18.8998 2.91675 19.8233 4.57359 21.6705 7.88729L22.1484 8.74458C22.6734 9.68623 22.9357 10.1571 23.3451 10.4677C23.7543 10.7784 24.2638 10.8937 25.2832 11.1243L26.2113 11.3343C29.7982 12.1459 31.5918 12.5517 32.0185 13.9239C32.4452 15.296 31.2226 16.7259 28.7771 19.5854L28.1444 20.3252C27.4496 21.1377 27.102 21.544 26.9457 22.0467C26.7895 22.5494 26.842 23.0915 26.947 24.1757L27.0427 25.1627C27.4124 28.978 27.5973 30.8857 26.4802 31.7337C25.363 32.5817 23.6837 31.8085 20.3252 30.2622L19.4563 29.8621C18.5019 29.4227 18.0248 29.2029 17.5189 29.2029C17.013 29.2029 16.5358 29.4227 15.5815 29.8621L14.7126 30.2622C11.354 31.8085 9.67477 32.5817 8.55764 31.7337C7.44052 30.8857 7.62537 28.978 7.99509 25.1627L8.09073 24.1757C8.1958 23.0915 8.24833 22.5494 8.09201 22.0467C7.93571 21.544 7.58826 21.1377 6.89335 20.3252L6.2607 19.5854C3.81529 16.7259 2.59258 15.296 3.01929 13.9239C3.446 12.5517 5.23951 12.1459 8.82655 11.3343L9.75456 11.1243C10.7739 10.8937 11.2835 10.7784 11.6928 10.4677C12.102 10.1571 12.3644 9.68624 12.8894 8.74458L13.3672 7.8873Z" fill="#F0A400"/>
</g>
</svg>
