<svg width="25" height="25" viewBox="0 0 25 25" fill="none" xmlns="http://www.w3.org/2000/svg">
<path d="M9.8934 5.90838C11.16 3.63613 11.7933 2.5 12.7402 2.5C13.6871 2.5 14.3204 3.63612 15.587 5.90837L15.9147 6.49623C16.2747 7.14193 16.4546 7.46479 16.7353 7.67781C17.0159 7.89083 17.3653 7.9699 18.0643 8.12805L18.7007 8.27203C21.1603 8.82856 22.3902 9.10682 22.6828 10.0477C22.9754 10.9886 22.137 11.9691 20.4601 13.9299L20.0263 14.4372C19.5498 14.9944 19.3115 15.273 19.2043 15.6177C19.0972 15.9624 19.1332 16.3341 19.2052 17.0776L19.2708 17.7544C19.5243 20.3706 19.6511 21.6787 18.8851 22.2602C18.119 22.8417 16.9675 22.3115 14.6645 21.2512L14.0687 20.9768C13.4143 20.6755 13.0871 20.5248 12.7402 20.5248C12.3933 20.5248 12.0661 20.6755 11.4117 20.9768L10.8159 21.2512C8.51292 22.3115 7.36142 22.8417 6.59539 22.2602C5.82936 21.6787 5.95612 20.3706 6.20964 17.7544L6.27522 17.0776C6.34727 16.3341 6.38329 15.9624 6.2761 15.6177C6.16892 15.273 5.93067 14.9944 5.45416 14.4372L5.02034 13.9299C3.34349 11.9691 2.50506 10.9886 2.79766 10.0477C3.09026 9.10682 4.3201 8.82856 6.77978 8.27203L7.41613 8.12805C8.11509 7.9699 8.46457 7.89083 8.74518 7.67781C9.02579 7.46479 9.20577 7.14194 9.56571 6.49623L9.8934 5.90838Z" fill="#F0A400"/>
</svg>
