<svg width="33" height="32" viewBox="0 0 33 32" fill="none" xmlns="http://www.w3.org/2000/svg">
<path d="M29.2158 12.1813L28.0889 16.5778C27.5162 18.8122 26.3468 20.3844 24.9731 21.4901C25.2656 19.9653 25.259 18.2668 24.7819 16.4055L23.63 11.911C23.5617 11.6446 23.4949 11.384 23.4292 11.133C23.6575 11.0294 23.9366 10.9966 24.2276 11.0745C24.7326 11.2098 25.0396 11.6161 25.0779 12.0108C25.1312 12.5605 25.6201 12.9628 26.1698 12.9095C26.7195 12.8561 27.1219 12.3672 27.0685 11.8175C26.9465 10.5609 26.0241 9.48536 24.7453 9.1427C24.1017 8.97027 23.4436 9.00367 22.8549 9.21032L22.8328 9.15086C22.5336 8.35569 22.096 7.51252 21.2707 6.89264C20.8194 6.55366 20.3094 6.29916 19.7642 6.14458C18.7527 5.85782 17.8141 6.04211 17.0127 6.30878C16.2682 6.55649 15.4002 6.96306 14.4466 7.40974L14.351 7.45451C12.7716 8.19416 12.1396 8.48583 11.4922 8.69132C11.2957 8.7537 11.0976 8.81036 10.8983 8.86127L11.3338 7.17231C11.9213 4.88047 12.215 3.73454 12.982 3.15846C13.2391 2.96533 13.5273 2.82204 13.8329 2.73541C14.7444 2.47699 15.7804 2.96213 17.8523 3.93242C19.3866 4.65091 20.1538 5.01016 20.9542 5.26425C21.2326 5.3526 21.5136 5.43132 21.7969 5.50028C22.6116 5.69865 23.4478 5.78852 25.1202 5.96826C27.3786 6.21098 28.5079 6.33235 29.1736 7.03259C29.3969 7.26734 29.5779 7.54209 29.7082 7.84374C30.0969 8.74355 29.8032 9.88947 29.2158 12.1813Z" fill="black"/>
<path fill-rule="evenodd" clip-rule="evenodd" d="M22.8446 16.9021L21.7177 12.5056C21.1303 10.2138 20.8366 9.06788 20.0696 8.49179C19.8125 8.29867 19.5243 8.15537 19.2187 8.06874C18.3072 7.81032 17.2712 8.29546 15.1992 9.26575C13.6649 9.98425 12.8978 10.3435 12.0973 10.5976C11.819 10.6859 11.538 10.7646 11.2547 10.8336C10.4399 11.032 9.60375 11.1218 7.9314 11.3016C5.67295 11.5443 4.54369 11.6657 3.87791 12.3659C3.65471 12.6007 3.47364 12.8754 3.34333 13.1771C2.95464 14.0769 3.24835 15.2228 3.83577 17.5146L4.96264 21.9111C6.28725 27.0791 10.6914 28.7047 13.6509 29.2076C14.5538 29.3611 15.0052 29.4378 16.3763 29.0537C17.7473 28.6697 18.1016 28.3673 18.8102 27.7624C21.1326 25.7799 24.1692 22.0701 22.8446 16.9021ZM8.50741 17.8239C8.54572 17.4292 8.85272 17.023 9.35766 16.8877C9.86261 16.7524 10.3316 16.9507 10.5621 17.2734C10.8832 17.7227 11.5078 17.8268 11.9571 17.5057C12.4065 17.1846 12.5105 16.5601 12.1894 16.1107C11.4555 15.0834 10.1189 14.6132 8.84002 14.9558C7.56119 15.2985 6.63875 16.374 6.51676 17.6307C6.4634 18.1804 6.86576 18.6693 7.41546 18.7226C7.96516 18.776 8.45404 18.3736 8.50741 17.8239ZM16.2353 15.753C16.2736 15.3583 16.5806 14.952 17.0855 14.8167C17.5905 14.6814 18.0595 14.8798 18.29 15.2024C18.6111 15.6518 19.2356 15.7558 19.685 15.4347C20.1344 15.1137 20.2384 14.4891 19.9173 14.0397C19.1833 13.0124 17.8467 12.5422 16.5679 12.8849C15.2891 13.2275 14.3666 14.3031 14.2446 15.5597C14.1913 16.1094 14.5936 16.5983 15.1433 16.6517C15.693 16.705 16.1819 16.3027 16.2353 15.753ZM18.6966 20.8382C19.1401 21.1674 19.2327 21.7937 18.9036 22.2372C18.5775 22.6766 17.9596 22.7716 17.5169 22.4532L17.504 22.4449C17.4849 22.4328 17.4474 22.4103 17.3922 22.3819C17.2817 22.325 17.1018 22.2454 16.8573 22.179C16.3752 22.048 15.6179 21.9614 14.6097 22.2315C13.6014 22.5017 12.9889 22.9553 12.6369 23.3098C12.4584 23.4896 12.3424 23.6485 12.2751 23.753C12.2415 23.8052 12.2203 23.8435 12.2098 23.8635L12.2028 23.8772C11.9786 24.3743 11.396 24.6009 10.8939 24.3834C10.3871 24.1639 10.1542 23.5752 10.3737 23.0684L11.2913 23.4658C10.3737 23.0684 10.3746 23.0663 10.3746 23.0663L10.3756 23.064L10.3778 23.059L10.383 23.0474L10.3971 23.0172C10.408 22.9942 10.4223 22.9654 10.4402 22.9314C10.476 22.8635 10.5263 22.7748 10.5933 22.6706C10.7273 22.4623 10.9293 22.191 11.2178 21.9005C11.7997 21.3146 12.717 20.6681 14.092 20.2997C15.467 19.9313 16.5847 20.0324 17.3816 20.2489C17.7766 20.3562 18.0873 20.4903 18.3075 20.6036C18.4176 20.6603 18.5055 20.712 18.5704 20.7529C18.6029 20.7734 18.6297 20.7912 18.6507 20.8057L18.678 20.8247L18.6884 20.8322L18.6927 20.8354L18.6947 20.8369L18.6966 20.8382Z" fill="black"/>
</svg>
