<svg width="33" height="32" viewBox="0 0 33 32" fill="none" xmlns="http://www.w3.org/2000/svg">
<path d="M9.83333 28H23.1667M26.5 16L29.8333 8M22.1667 4C22.5267 4.13333 23.2333 4.70667 23.1667 5.81333C23.0867 6.92 21.9267 7.41333 21.8333 8.50667C21.7667 9.54667 22.2867 10.16 22.8067 10.6667M15.5 4C15.86 4.13333 16.5667 4.70667 16.4867 5.81333C16.42 6.92 15.2467 7.41333 15.18 8.50667C15.1 9.54667 15.62 10.16 16.14 10.6667M8.83333 4C9.19333 4.13333 9.9 4.70667 9.83333 5.81333C9.75333 6.92 8.59333 7.41333 8.5 8.50667C8.43333 9.54667 8.95333 10.16 9.48667 10.6667M16.5 28C19.6826 28 22.7348 26.7357 24.9853 24.4853C27.2357 22.2348 28.5 19.1826 28.5 16H4.5C4.5 19.1826 5.76428 22.2348 8.01472 24.4853C10.2652 26.7357 13.3174 28 16.5 28Z" stroke="black" stroke-width="2" stroke-linecap="round" stroke-linejoin="round"/>
</svg>
