<svg width="100" height="32" viewBox="0 0 100 32" fill="none" xmlns="http://www.w3.org/2000/svg">
<path d="M6.26032 24.3048V6.96615H0V2.82328H17.308V6.96615H10.8635V24.3048H6.26032Z" fill="black"/>
<path d="M46.2516 24.3048V6.96615H39.9913V2.82328H57.2993V6.96615H50.8548V24.3048H46.2516Z" fill="black"/>
<path d="M59.2729 24.3048V8.07091H63.4771L63.6306 13.2878L62.894 12.2138C63.1396 11.375 63.5385 10.618 64.0909 9.94287C64.6433 9.24728 65.2877 8.70512 66.0242 8.31641C66.7812 7.9277 67.5688 7.73334 68.3872 7.73334C68.735 7.73334 69.0725 7.76403 69.3999 7.82541C69.7272 7.88678 70.0034 7.95839 70.2285 8.04022L69.0623 12.8275C68.8168 12.7048 68.5202 12.6025 68.1724 12.5206C67.8246 12.4184 67.4665 12.3672 67.0983 12.3672C66.6073 12.3672 66.147 12.4593 65.7173 12.6434C65.3082 12.8071 64.9501 13.0526 64.6433 13.3799C64.3364 13.6868 64.0909 14.055 63.9067 14.4847C63.7431 14.9143 63.6612 15.3848 63.6612 15.8963V24.3048H59.2729Z" fill="black"/>
<path d="M73.7108 24.3048V8.07091H78.0685V24.3048H73.7108ZM75.859 4.72593C75.0202 4.72593 74.3655 4.52135 73.8949 4.11217C73.4244 3.703 73.1891 3.11993 73.1891 2.36297C73.1891 1.66737 73.4244 1.10476 73.8949 0.675133C74.3859 0.225044 75.0406 0 75.859 0C76.6978 0 77.3524 0.214815 77.823 0.644446C78.2935 1.05362 78.5288 1.62646 78.5288 2.36297C78.5288 3.07902 78.2833 3.65186 77.7923 4.08149C77.3217 4.51112 76.6773 4.72593 75.859 4.72593Z" fill="black"/>
<path d="M83.3365 31.0561V8.07091H87.5407L87.6635 11.7228L86.8656 11.4466C87.0088 10.7919 87.3566 10.1884 87.909 9.63599C88.4818 9.08361 89.1876 8.63352 90.0264 8.28572C90.8652 7.93793 91.745 7.76403 92.6656 7.76403C94.0772 7.76403 95.3252 8.13228 96.4095 8.86879C97.5143 9.58484 98.3838 10.5771 99.018 11.8455C99.6727 13.0935 100 14.5358 100 16.1725C100 17.7887 99.6829 19.2311 99.0487 20.4995C98.4145 21.7679 97.545 22.7704 96.4402 23.5069C95.3354 24.223 94.0772 24.581 92.6656 24.581C91.7245 24.581 90.8243 24.4071 89.9651 24.0593C89.1263 23.691 88.4102 23.2103 87.8169 22.617C87.2236 22.0237 86.8554 21.3894 86.7121 20.7143L87.7248 20.2847V31.0561H83.3365ZM91.6836 20.8371C92.4815 20.8371 93.1873 20.6427 93.801 20.254C94.4148 19.8653 94.8956 19.3231 95.2434 18.6275C95.5912 17.9115 95.7651 17.0931 95.7651 16.1725C95.7651 15.2519 95.5912 14.4438 95.2434 13.7482C94.8956 13.0526 94.4148 12.5104 93.801 12.1217C93.2078 11.733 92.5019 11.5386 91.6836 11.5386C90.8652 11.5386 90.1492 11.733 89.5354 12.1217C88.9217 12.49 88.4409 13.0321 88.0931 13.7482C87.7453 14.4438 87.5714 15.2519 87.5714 16.1725C87.5714 17.0931 87.7453 17.9115 88.0931 18.6275C88.4409 19.3231 88.9217 19.8653 89.5354 20.254C90.1492 20.6427 90.8652 20.8371 91.6836 20.8371Z" fill="black"/>
<g clip-path="url(#clip0_292_529)">
<path d="M37.1596 8.2021C40.0785 13.3257 38.3375 19.9105 33.2817 22.8686C28.233 25.8226 21.7355 24.0583 18.8166 18.9346C15.9017 13.8181 17.6427 7.23338 22.6914 4.27938C27.7472 1.32121 34.2447 3.08558 37.1596 8.2021ZM22.5851 9.92665C22.4091 10.0297 22.401 10.2627 22.5842 10.4029L26.3337 13.1282L24.1041 14.7848L22.3314 13.7002C22.1615 13.5998 22.0053 13.6056 21.8222 13.7127L21.6039 13.8404C21.4349 13.9393 21.3832 14.1123 21.4808 14.2835L24.1274 18.9291C24.2249 19.1003 24.4026 19.1486 24.5716 19.0497L24.7899 18.922C24.973 18.8148 25.052 18.6734 25.0552 18.4813L25.0107 16.3761L27.5452 15.2547L27.9993 19.908C28.0275 20.139 28.2307 20.2484 28.4067 20.1454L28.9771 19.8117C29.132 19.721 29.2463 19.5591 29.2858 19.3647L30.4978 13.8126C30.5592 13.5578 30.6163 13.4768 30.8628 13.3326L32.8625 12.1626C33.8554 11.5816 34.3939 10.6481 34.0442 10.0343C33.6946 9.42068 32.6276 9.4265 31.6348 10.0074L29.635 11.1775C29.3886 11.3217 29.2908 11.3313 29.0383 11.2507L23.6918 9.54553C23.5059 9.48302 23.3104 9.50228 23.1554 9.59295L22.5851 9.92665Z" fill="#4154FF"/>
</g>
<defs>
<clipPath id="clip0_292_529">
<rect width="21.4815" height="21.4815" fill="white" transform="translate(17.3994 2.82324)"/>
</clipPath>
</defs>
</svg>
