<?xml version="1.0" standalone="no"?>
<!DOCTYPE svg PUBLIC "-//W3C//DTD SVG 20010904//EN"
 "http://www.w3.org/TR/2001/REC-SVG-20010904/DTD/svg10.dtd">
<svg version="1.0" xmlns="http://www.w3.org/2000/svg"
 width="1024.000000pt" height="850.000000pt" viewBox="0 0 1024.000000 850.000000"
 preserveAspectRatio="xMidYMid meet">
<metadata>
Created by potrace 1.16, written by Peter Selinger 2001-2019
</metadata>
<g transform="translate(0.000000,850.000000) scale(0.100000,-0.100000)"
fill="#000000" stroke="none">
<path d="M1020 8491 c-75 -23 -125 -71 -149 -140 -8 -25 -11 -525 -11 -1876
l0 -1841 -107 -81 c-426 -321 -677 -722 -732 -1172 -7 -56 -11 -622 -11 -1648
0 -1399 1 -1566 15 -1600 36 -86 105 -127 206 -121 83 4 140 39 176 107 23 44
23 48 23 373 l0 328 4695 0 4695 0 0 -323 0 -323 25 -51 c37 -73 89 -106 175
-111 97 -6 161 31 204 115 15 29 16 180 16 1648 0 1594 0 1618 -21 1718 -82
405 -332 777 -711 1060 l-118 88 0 1847 c0 1775 -1 1849 -19 1888 -22 49 -78
97 -130 113 -44 13 -8178 15 -8221 2z m7950 -2021 c0 -1167 -3 -1600 -11
-1600 -6 0 -54 16 -106 36 -184 68 -485 140 -675 159 l-68 7 0 562 c0 615 -2
631 -61 751 -78 160 -219 276 -385 320 -94 25 -201 21 -354 -14 -196 -43 -317
-55 -520 -48 -188 6 -281 19 -491 68 -114 26 -147 30 -219 26 -245 -16 -435
-178 -507 -432 -15 -53 -17 -130 -21 -642 l-3 -583 -424 0 -424 0 -3 578 -3
577 -27 72 c-114 315 -407 474 -724 394 -188 -47 -260 -55 -499 -55 -248 0
-313 7 -556 64 -72 17 -154 30 -190 30 -247 -1 -448 -158 -535 -420 -17 -50
-19 -105 -22 -651 l-3 -595 -151 -23 c-213 -31 -464 -97 -645 -170 l-53 -21 0
1605 0 1605 3840 0 3840 0 0 -1600z m-6138 -185 c204 -50 365 -68 603 -69 239
-1 321 8 535 55 152 34 184 32 234 -12 68 -59 66 -39 66 -638 l0 -541 -850 0
-850 0 0 558 c0 522 2 560 19 598 37 81 77 89 243 49z m3458 -8 c217 -49 329
-61 565 -61 235 0 352 12 553 60 126 29 125 29 179 3 30 -15 52 -35 71 -67
l27 -47 0 -540 0 -540 -852 -3 -853 -2 0 546 c0 389 3 558 12 586 6 22 27 52
46 69 31 27 40 30 86 27 28 -3 103 -16 166 -31z m1880 -1639 c437 -68 791
-209 1089 -433 100 -76 240 -212 312 -303 95 -121 183 -294 215 -424 8 -35 18
-71 20 -80 5 -17 -222 -18 -4675 -18 -2575 0 -4681 3 -4681 7 0 33 51 188 90
269 192 408 618 737 1165 898 180 53 307 75 565 100 19 2 1331 2 2915 2 2609
-2 2890 -3 2985 -18z m1648 -2540 l-3 -853 -4690 0 -4690 0 -3 853 -2 852
4695 0 4695 0 -2 -852z"/>
</g>
</svg>
