<svg width="32" height="32" viewBox="0 0 32 32" fill="none" xmlns="http://www.w3.org/2000/svg">
<path d="M14.9996 14V9.66669H12.6663C11.381 9.66669 10.5176 9.66882 9.87353 9.75541C9.25825 9.83813 8.99491 9.98109 8.82117 10.1548C8.64741 10.3286 8.50445 10.5919 8.42171 11.2072C8.33513 11.8513 8.33301 12.7147 8.33301 14H14.9996Z" fill="black"/>
<path d="M23.6667 14C23.6667 12.7147 23.6645 11.8513 23.578 11.2072C23.4953 10.5919 23.3523 10.3286 23.1785 10.1548C23.0048 9.98109 22.7415 9.83813 22.1261 9.75541C21.4821 9.66882 20.6187 9.66669 19.3333 9.66669H17V14H23.6667Z" fill="black"/>
<path fill-rule="evenodd" clip-rule="evenodd" d="M17.3337 5.33331H14.667C9.63871 5.33331 7.12455 5.33331 5.56246 6.89541C4.19917 8.2587 4.02566 10.3472 4.00358 14.1992V16.3553C3.49646 16.6472 3.09633 17.0997 2.86998 17.6461C2.66699 18.1362 2.66699 18.7574 2.66699 20C2.66699 21.2425 2.66699 21.8637 2.86998 22.3538C3.14063 23.0072 3.65977 23.5264 4.31317 23.797C4.64969 23.9364 5.04807 23.9801 5.66699 23.9937V26.6666C5.66699 27.2189 6.11471 27.6666 6.66699 27.6666C7.21927 27.6666 7.66699 27.2189 7.66699 26.6666V24H24.3337V26.6666C24.3337 27.2189 24.7814 27.6666 25.3337 27.6666C25.8859 27.6666 26.3337 27.2189 26.3337 26.6666V23.9937C26.9526 23.9801 27.351 23.9364 27.6875 23.797C28.3409 23.5264 28.8601 23.0072 29.1307 22.3538C29.3337 21.8637 29.3337 21.2425 29.3337 20C29.3337 18.7574 29.3337 18.1362 29.1307 17.6461C28.9043 17.0997 28.5042 16.6472 27.9971 16.3554V14.1992C27.9751 10.3472 27.8015 8.2587 26.4383 6.89541C24.8762 5.33331 22.3621 5.33331 17.3337 5.33331ZM25.667 16.0001V13.9306C25.6671 12.7327 25.6671 11.7337 25.5605 10.9407C25.4479 10.1036 25.2003 9.34789 24.5931 8.74059C23.9858 8.1333 23.2301 7.88574 22.393 7.77319C21.5999 7.66658 20.601 7.66661 19.403 7.66665H12.5977C11.3997 7.66661 10.4008 7.66658 9.60773 7.77319C8.77067 7.88574 8.01493 8.1333 7.40765 8.74059C6.80035 9.34789 6.55278 10.1036 6.44025 10.9407C6.33362 11.7337 6.33366 12.7327 6.3337 13.9306V16.0001C6.43961 16 6.55058 16 6.66699 16H25.3337C25.4501 16 25.5611 16 25.667 16.0001Z" fill="black"/>
</svg>
