<svg width="33" height="32" viewBox="0 0 33 32" fill="none" xmlns="http://www.w3.org/2000/svg">
<path fill-rule="evenodd" clip-rule="evenodd" d="M4.9171 19.5994C5.13847 19.0935 5.7281 18.8627 6.23408 19.0841L12.9007 22.0008C13.4067 22.2221 13.6375 22.8118 13.4161 23.3177C13.1947 23.8237 12.6051 24.0544 12.0991 23.8331L5.43244 20.9164C4.92646 20.695 4.69574 20.1054 4.9171 19.5994ZM28.0828 19.5994C28.3041 20.1054 28.0734 20.695 27.5674 20.9164L6.23408 30.2497C5.7281 30.4711 5.13847 30.2404 4.9171 29.7344C4.69574 29.2284 4.92646 28.6388 5.43244 28.4174L26.7658 19.0841C27.2718 18.8627 27.8614 19.0935 28.0828 19.5994ZM18.9171 25.7244C19.1385 25.2185 19.7281 24.9877 20.2341 25.2091L27.5674 28.4174C28.0734 28.6388 28.3041 29.2284 28.0828 29.7344C27.8614 30.2404 27.2718 30.4711 26.7658 30.2497L19.4324 27.0414C18.9265 26.82 18.6957 26.2304 18.9171 25.7244Z" fill="black"/>
<path fill-rule="evenodd" clip-rule="evenodd" d="M15.9667 20C18.8111 20 24.5 18.3486 24.5 11.7432C24.5 7.70129 22.0349 4.76983 19.7013 3.01943C18.504 2.1214 16.9706 3.05282 16.9706 4.51857C16.9706 5.50887 16.6898 7.15481 15.9128 8.37326C15.0035 9.79921 13.5017 8.56129 13.2639 6.90161C13.1447 6.06931 12.2285 5.72514 11.5146 6.20362C10.1112 7.14431 8.5 8.94685 8.5 11.7432C8.5 18.3486 13.4778 20 15.9667 20ZM20.7873 12.3755C21.3163 12.5342 21.6165 13.0916 21.4578 13.6206C21.0993 14.8158 19.6125 17 16.5 17C15.9477 17 15.5 16.5522 15.5 16C15.5 15.4477 15.9477 15 16.5 15C18.5075 15 19.3674 13.6286 19.5422 13.0459C19.7009 12.517 20.2584 12.2168 20.7873 12.3755Z" fill="black"/>
</svg>
