<svg width="184" height="33" viewBox="0 0 184 33" fill="none" xmlns="http://www.w3.org/2000/svg">
<path d="M12.2045 7.71125C13.8934 4.68159 14.7378 3.16675 16.0003 3.16675C17.2629 3.16675 18.1073 4.68157 19.7961 7.71124L20.233 8.49505C20.713 9.35599 20.9529 9.78647 21.3271 10.0705C21.7013 10.3545 22.1671 10.4599 23.0991 10.6708L23.9477 10.8628C27.2271 11.6048 28.867 11.9758 29.2571 13.2304C29.6473 14.4849 28.5294 15.7922 26.2935 18.4066L25.7151 19.083C25.0798 19.8259 24.7621 20.1974 24.6191 20.657C24.4763 21.1166 24.5243 21.6122 24.6203 22.6035L24.7078 23.5059C25.0458 26.9942 25.2149 28.7383 24.1935 29.5137C23.1721 30.289 21.6367 29.5821 18.5661 28.1683L17.7717 27.8025C16.8991 27.4007 16.4629 27.1998 16.0003 27.1998C15.5378 27.1998 15.1015 27.4007 14.229 27.8025L13.4346 28.1683C10.3639 29.5821 8.82857 30.289 7.8072 29.5137C6.78582 28.7383 6.95483 26.9942 7.29286 23.5059L7.3803 22.6035C7.47637 21.6122 7.52439 21.1166 7.38147 20.657C7.23857 20.1974 6.9209 19.8259 6.28555 19.083L5.70713 18.4066C3.47133 15.7922 2.35342 14.4849 2.74355 13.2304C3.13369 11.9758 4.77347 11.6048 8.05305 10.8628L8.90152 10.6708C9.83346 10.4599 10.2994 10.3545 10.6736 10.0705C11.0477 9.78647 11.2877 9.356 11.7676 8.49505L12.2045 7.71125Z" fill="#FFD900"/>
<path d="M50.2045 7.71125C51.8934 4.68159 52.7378 3.16675 54.0003 3.16675C55.2629 3.16675 56.1073 4.68157 57.7961 7.71124L58.233 8.49505C58.713 9.35599 58.9529 9.78647 59.3271 10.0705C59.7013 10.3545 60.1671 10.4599 61.0991 10.6708L61.9477 10.8628C65.2271 11.6048 66.867 11.9758 67.2571 13.2304C67.6473 14.4849 66.5294 15.7922 64.2935 18.4066L63.7151 19.083C63.0798 19.8259 62.7621 20.1974 62.6191 20.657C62.4763 21.1166 62.5243 21.6122 62.6203 22.6035L62.7078 23.5059C63.0458 26.9942 63.2149 28.7383 62.1935 29.5137C61.1721 30.289 59.6367 29.5821 56.5661 28.1683L55.7717 27.8025C54.8991 27.4007 54.4629 27.1998 54.0003 27.1998C53.5378 27.1998 53.1015 27.4007 52.229 27.8025L51.4346 28.1683C48.3639 29.5821 46.8286 30.289 45.8072 29.5137C44.7858 28.7383 44.9548 26.9942 45.2929 23.5059L45.3803 22.6035C45.4764 21.6122 45.5244 21.1166 45.3815 20.657C45.2386 20.1974 44.9209 19.8259 44.2856 19.083L43.7071 18.4066C41.4713 15.7922 40.3534 14.4849 40.7436 13.2304C41.1337 11.9758 42.7735 11.6048 46.053 10.8628L46.9015 10.6708C47.8335 10.4599 48.2994 10.3545 48.6736 10.0705C49.0477 9.78647 49.2877 9.356 49.7676 8.49505L50.2045 7.71125Z" fill="#FFD900"/>
<path d="M88.2045 7.71125C89.8934 4.68159 90.7378 3.16675 92.0003 3.16675C93.2629 3.16675 94.1073 4.68157 95.7961 7.71124L96.233 8.49505C96.713 9.35599 96.9529 9.78647 97.3271 10.0705C97.7013 10.3545 98.1671 10.4599 99.0991 10.6708L99.9477 10.8628C103.227 11.6048 104.867 11.9758 105.257 13.2304C105.647 14.4849 104.529 15.7922 102.294 18.4066L101.715 19.083C101.08 19.8259 100.762 20.1974 100.619 20.657C100.476 21.1166 100.524 21.6122 100.62 22.6035L100.708 23.5059C101.046 26.9942 101.215 28.7383 100.194 29.5137C99.1721 30.289 97.6367 29.5821 94.5661 28.1683L93.7717 27.8025C92.8991 27.4007 92.4629 27.1998 92.0003 27.1998C91.5378 27.1998 91.1015 27.4007 90.229 27.8025L89.4346 28.1683C86.3639 29.5821 84.8286 30.289 83.8072 29.5137C82.7858 28.7383 82.9548 26.9942 83.2929 23.5059L83.3803 22.6035C83.4764 21.6122 83.5244 21.1166 83.3815 20.657C83.2386 20.1974 82.9209 19.8259 82.2856 19.083L81.7071 18.4066C79.4713 15.7922 78.3534 14.4849 78.7436 13.2304C79.1337 11.9758 80.7735 11.6048 84.053 10.8628L84.9015 10.6708C85.8335 10.4599 86.2994 10.3545 86.6736 10.0705C87.0477 9.78647 87.2877 9.356 87.7676 8.49505L88.2045 7.71125Z" fill="#FFD900"/>
<path d="M126.205 7.71125C127.893 4.68159 128.738 3.16675 130 3.16675C131.263 3.16675 132.107 4.68157 133.796 7.71124L134.233 8.49505C134.713 9.35599 134.953 9.78647 135.327 10.0705C135.701 10.3545 136.167 10.4599 137.099 10.6708L137.948 10.8628C141.227 11.6048 142.867 11.9758 143.257 13.2304C143.647 14.4849 142.529 15.7922 140.294 18.4066L139.715 19.083C139.08 19.8259 138.762 20.1974 138.619 20.657C138.476 21.1166 138.524 21.6122 138.62 22.6035L138.708 23.5059C139.046 26.9942 139.215 28.7383 138.194 29.5137C137.172 30.289 135.637 29.5821 132.566 28.1683L131.772 27.8025C130.899 27.4007 130.463 27.1998 130 27.1998C129.538 27.1998 129.102 27.4007 128.229 27.8025L127.435 28.1683C124.364 29.5821 122.829 30.289 121.807 29.5137C120.786 28.7383 120.955 26.9942 121.293 23.5059L121.38 22.6035C121.476 21.6122 121.524 21.1166 121.381 20.657C121.239 20.1974 120.921 19.8259 120.286 19.083L119.707 18.4066C117.471 15.7922 116.353 14.4849 116.744 13.2304C117.134 11.9758 118.773 11.6048 122.053 10.8628L122.902 10.6708C123.833 10.4599 124.299 10.3545 124.674 10.0705C125.048 9.78647 125.288 9.356 125.768 8.49505L126.205 7.71125Z" fill="#FFD900"/>
<path d="M164.205 7.71125C165.893 4.68159 166.738 3.16675 168 3.16675C169.263 3.16675 170.107 4.68157 171.796 7.71124L172.233 8.49505C172.713 9.35599 172.953 9.78647 173.327 10.0705C173.701 10.3545 174.167 10.4599 175.099 10.6708L175.948 10.8628C179.227 11.6048 180.867 11.9758 181.257 13.2304C181.647 14.4849 180.529 15.7922 178.294 18.4066L177.715 19.083C177.08 19.8259 176.762 20.1974 176.619 20.657C176.476 21.1166 176.524 21.6122 176.62 22.6035L176.708 23.5059C177.046 26.9942 177.215 28.7383 176.194 29.5137C175.172 30.289 173.637 29.5821 170.566 28.1683L169.772 27.8025C168.899 27.4007 168.463 27.1998 168 27.1998C167.538 27.1998 167.102 27.4007 166.229 27.8025L165.435 28.1683C162.364 29.5821 160.829 30.289 159.807 29.5137C158.786 28.7383 158.955 26.9942 159.293 23.5059L159.38 22.6035C159.476 21.6122 159.524 21.1166 159.381 20.657C159.239 20.1974 158.921 19.8259 158.286 19.083L157.707 18.4066C155.471 15.7922 154.353 14.4849 154.744 13.2304C155.134 11.9758 156.773 11.6048 160.053 10.8628L160.902 10.6708C161.833 10.4599 162.299 10.3545 162.674 10.0705C163.048 9.78647 163.288 9.356 163.768 8.49505L164.205 7.71125Z" fill="#FFD900"/>
</svg>
